<?xml version="1.0" encoding="UTF-8" standalone="no"?>
<!DOCTYPE svg PUBLIC "-//W3C//DTD SVG 1.1//EN" "http://www.w3.org/Graphics/SVG/1.1/DTD/svg11.dtd">
<svg width="100%" height="100%" viewBox="0 0 340 300" version="1.1" xmlns="http://www.w3.org/2000/svg" xmlns:xlink="http://www.w3.org/1999/xlink" xml:space="preserve" xmlns:serif="http://www.serif.com/" style="fill-rule:evenodd;clip-rule:evenodd;stroke-linejoin:round;stroke-miterlimit:2;">
    <g id="Artboard1" transform="matrix(0.988372,0,0,0.970874,-83.0233,-17.4757)">
        <rect x="84" y="18" width="344" height="309" style="fill:none;"/>
        <clipPath id="_clip1">
            <rect x="84" y="18" width="344" height="309"/>
        </clipPath>
        <g clip-path="url(#_clip1)">
            <g transform="matrix(1,0,0,1.03333,-2.02302,-3.34032)">
                <g transform="matrix(1.01176,0,0,0.996774,-0.988235,0.0580645)">
                    <path d="M336.845,321.209L255.508,132.414L200.324,260.22L259.378,260.22L282.592,321.21L336.845,321.209Z" style="fill:rgb(255,147,147);fill-rule:nonzero;"/>
                </g>
                <g transform="matrix(1.01176,0,0,0.996774,-0.988235,0.0580645)">
                    <path d="M301.015,20.111L426.547,321.054L426.874,20.111L301.015,20.111Z" style="fill:rgb(255,147,147);fill-rule:nonzero;"/>
                </g>
                <g transform="matrix(1.01176,0,0,0.996774,-0.988235,0.0580645)">
                    <path d="M85.125,20.111L85.125,318.935L211.927,20.111L85.125,20.111Z" style="fill:rgb(255,147,147);fill-rule:nonzero;"/>
                </g>
            </g>
        </g>
    </g>
</svg>
